<svg width="200" height="40" viewBox="0 0 200 40" fill="none" xmlns="http://www.w3.org/2000/svg" role="img" aria-label="Sign in with Apple">
  <rect width="200" height="40" rx="6" fill="#000000"/>
  <path fill="#FFFFFF" d="M22.02 28.28c-.9.87-1.88 1.73-3.22 1.75-1.34.02-1.77-.79-3.3-.79-1.53 0-2 .76-3.27.8-1.27.04-2.23-1.3-3.13-2.22-1.7-1.84-3-5.2-1.57-8.47.71-1.6 1.96-2.62 3.33-2.65 1.31-.03 2.55.88 3.3.88.75 0 2.16-1.09 3.64-.93.62.03 2.38.25 3.5 1.88-3.03 1.65-2.54 5.94.49 7.25-.6 1.56-1.38 3.1-2.64 4.5ZM19.32 10.25c-.14-2.04 1.52-3.73 3.43-3.9.26 2.36-2.15 4.12-3.43 3.9Z" transform="translate(4 2) scale(0.92)"/>
  <text x="40" y="25.5" font-family="-apple-system, BlinkMacSystemFont, 'SF Pro Text', 'Segoe UI', system-ui, sans-serif" font-size="14" font-weight="500" fill="#FFFFFF">Sign in with Apple</text>
</svg>
